<?xml version="1.0" encoding="UTF-8"?>
<svg width="18px" height="18px" viewBox="0 0 18 18" version="1.1" xmlns="http://www.w3.org/2000/svg" xmlns:xlink="http://www.w3.org/1999/xlink">
    <!-- Generator: Sketch 51.2 (57519) - http://www.bohemiancoding.com/sketch -->
    <title>模块_为你精选旗舰酒店</title>
    <desc>Created with Sketch.</desc>
    <defs></defs>
    <g id="Symbols" stroke="none" stroke-width="1" fill="none" fill-rule="evenodd" opacity="0.400000006">
        <g id="close" transform="translate(-1.000000, -1.000000)" fill="#ACACAC">
            <path d="M10.8535534,8.85355339 L15.3535534,8.85355339 C15.9058381,8.85355339 16.3535534,9.30126864 16.3535534,9.85355339 C16.3535534,10.4058381 15.9058381,10.8535534 15.3535534,10.8535534 L10.8535534,10.8535534 L10.8535534,15.3535534 C10.8535534,15.9058381 10.4058381,16.3535534 9.85355339,16.3535534 C9.30126864,16.3535534 8.85355339,15.9058381 8.85355339,15.3535534 L8.85355339,10.8535534 L4.35355339,10.8535534 C3.80126864,10.8535534 3.35355339,10.4058381 3.35355339,9.85355339 C3.35355339,9.30126864 3.80126864,8.85355339 4.35355339,8.85355339 L8.85355339,8.85355339 L8.85355339,4.35355339 C8.85355339,3.80126864 9.30126864,3.35355339 9.85355339,3.35355339 C10.4058381,3.35355339 10.8535534,3.80126864 10.8535534,4.35355339 L10.8535534,8.85355339 Z" id="Combined-Shape" transform="translate(9.853553, 9.853553) rotate(-315.000000) translate(-9.853553, -9.853553) "></path>
        </g>
    </g>
</svg>