<?xml version="1.0" encoding="UTF-8"?>
<svg width="14px" height="14px" viewBox="0 0 14 14" version="1.1" xmlns="http://www.w3.org/2000/svg" xmlns:xlink="http://www.w3.org/1999/xlink">
    <!-- Generator: Sketch 51.2 (57519) - http://www.bohemiancoding.com/sketch -->
    <title>flesh</title>
    <desc>Created with Sketch.</desc>
    <defs></defs>
    <g id="Page-1" stroke="none" stroke-width="1" fill="none" fill-rule="evenodd">
        <g id="首页-copy-2" transform="translate(-301.000000, -1792.000000)" fill="#A5A5A5">
            <g id="模块_为你精选旗舰酒店" transform="translate(16.000000, 1786.000000)">
                <g id="Group-9-Copy" transform="translate(285.000000, 5.000000)">
                    <path d="M0.4983706,5.40098305 L2.25616003,6.41584325 C2.08999677,6.91365544 2,7.44631778 2,8 C2,10.7614237 4.23857625,13 7,13 C8.48939903,13 9.82669742,12.3487797 10.7426904,11.3155439 L12.5002554,12.3302745 C11.2184296,13.9561923 9.23111197,15 7,15 C3.13400675,15 0,11.8659932 0,8 C0,7.08162042 0.17685697,6.204548 0.4983706,5.40098305 Z M1.49974457,3.66972551 C2.78157039,2.04380766 4.76888803,1 7,1 C10.8659932,1 14,4.13400675 14,8 C14,8.91837958 13.823143,9.795452 13.5016294,10.5990169 L11.74384,9.58415675 C11.9100032,9.08634456 12,8.55368222 12,8 C12,5.23857625 9.76142375,3 7,3 C5.51060097,3 4.17330258,3.65122028 3.25730955,4.68445612 L1.49974457,3.66972551 Z" id="flesh"></path>
                </g>
            </g>
        </g>
    </g>
</svg>