<?xml version="1.0" encoding="UTF-8"?>
<svg width="24px" height="24px" viewBox="0 0 24 24" version="1.1" xmlns="http://www.w3.org/2000/svg" xmlns:xlink="http://www.w3.org/1999/xlink">
    <!-- Generator: Sketch 51.2 (57519) - http://www.bohemiancoding.com/sketch -->
    <title>msgIcon</title>
    <desc>Created with Sketch.</desc>
    <defs></defs>
    <g id="Symbols" stroke="none" stroke-width="1" fill="none" fill-rule="evenodd">
        <g id="msg">
            <path d="M10.1539433,4.92625633 C10.9196896,4.46557096 11.7881516,4.15822193 12.7168409,4.04669758 L12.7168409,2.9033055 C12.7168409,2.48909194 13.0526273,2.1533055 13.4668409,2.1533055 C13.8810545,2.1533055 14.2168409,2.48909194 14.2168409,2.9033055 L14.2168409,4.03907817 C17.4693956,4.39589512 20,7.1524204 20,10.5 L20,16.4995274 L21.5773329,16.4995274 C21.9915464,16.4995274 22.3273329,16.8353138 22.3273329,17.2495274 C22.3273329,17.6637409 21.9915464,17.9995274 21.5773329,17.9995274 L20,17.9995274 L15.75,18 C15.75,19.5187831 14.5187831,20.75 13,20.75 C11.4812169,20.75 10.25,19.5187831 10.25,18 L7,18 L5.29133925,17.9995274 C4.87712568,17.9995274 4.54133925,17.6637409 4.54133925,17.2495274 C4.54133925,16.8353138 4.87712568,16.4995274 5.29133925,16.4995274 L7,16.4995274 L7,13.6585886 C7.53960255,13.4678665 8.04377741,13.2021463 8.5,12.8739526 L8.5,16.4995274 L18.5,16.4995274 L18.5,10.5 C18.5,7.73857625 16.2614237,5.5 13.5,5.5 C12.4886429,5.5 11.547418,5.80027203 10.7606129,6.3165286 C10.6169016,5.82394371 10.4117249,5.35756614 10.1539433,4.92625633 Z M14.25,18 L11.75,18 C11.75,18.6903559 12.3096441,19.25 13,19.25 C13.6903559,19.25 14.25,18.6903559 14.25,18 Z" id="Combined-Shape" fill="#000000" fill-rule="nonzero"></path>
            <circle id="小红点" fill="#FF5555" cx="5" cy="8" r="4"></circle>
        </g>
    </g>
</svg>